<mxfile host="Electron" modified="2023-11-15T17:11:21.191Z" agent="Mozilla/5.0 (Macintosh; Intel Mac OS X 10_15_7) AppleWebKit/537.36 (KHTML, like Gecko) draw.io/22.0.3 Chrome/114.0.5735.289 Electron/25.8.4 Safari/537.36" etag="bgLCKH9gtXtyiE_rNXOp" version="22.0.3" type="device">
  <diagram name="Page-1" id="dkiBNy_VU2p00hY21MyY">
    <mxGraphModel dx="937" dy="711" grid="1" gridSize="10" guides="1" tooltips="1" connect="1" arrows="1" fold="1" page="1" pageScale="1" pageWidth="827" pageHeight="1169" math="0" shadow="0">
      <root>
        <mxCell id="0" />
        <mxCell id="1" parent="0" />
        <mxCell id="ET-E_L0radJHumGL9apl-5" value="Trust Boundary" style="html=1;fontColor=#FF3333;fontStyle=1;align=left;verticalAlign=top;spacing=0;labelBorderColor=none;fillColor=none;dashed=1;strokeWidth=2;strokeColor=#FF3333;spacingLeft=4;spacingTop=-3;" parent="1" vertex="1">
          <mxGeometry x="270" y="260" width="290" height="230" as="geometry" />
        </mxCell>
        <mxCell id="ET-E_L0radJHumGL9apl-11" value="" style="edgeStyle=orthogonalEdgeStyle;rounded=0;orthogonalLoop=1;jettySize=auto;html=1;" parent="1" source="ET-E_L0radJHumGL9apl-4" target="ET-E_L0radJHumGL9apl-10" edge="1">
          <mxGeometry relative="1" as="geometry" />
        </mxCell>
        <mxCell id="ET-E_L0radJHumGL9apl-4" value="API" style="ellipse;shape=doubleEllipse;whiteSpace=wrap;html=1;aspect=fixed;" parent="1" vertex="1">
          <mxGeometry x="370" y="290" width="80" height="80" as="geometry" />
        </mxCell>
        <mxCell id="ET-E_L0radJHumGL9apl-9" value="" style="edgeStyle=orthogonalEdgeStyle;rounded=0;orthogonalLoop=1;jettySize=auto;html=1;" parent="1" source="ET-E_L0radJHumGL9apl-4" target="ET-E_L0radJHumGL9apl-7" edge="1">
          <mxGeometry relative="1" as="geometry" />
        </mxCell>
        <mxCell id="ET-E_L0radJHumGL9apl-6" value="Client" style="rounded=0;whiteSpace=wrap;html=1;" parent="1" vertex="1">
          <mxGeometry x="40" y="300" width="120" height="60" as="geometry" />
        </mxCell>
        <mxCell id="ET-E_L0radJHumGL9apl-7" value="External Resource" style="rounded=0;whiteSpace=wrap;html=1;" parent="1" vertex="1">
          <mxGeometry x="670" y="300" width="120" height="60" as="geometry" />
        </mxCell>
        <mxCell id="ET-E_L0radJHumGL9apl-10" value="Data Store" style="shape=partialRectangle;whiteSpace=wrap;html=1;left=0;right=0;fillColor=none;" parent="1" vertex="1">
          <mxGeometry x="350" y="410" width="120" height="50" as="geometry" />
        </mxCell>
        <mxCell id="ET-E_L0radJHumGL9apl-12" style="edgeStyle=orthogonalEdgeStyle;rounded=0;orthogonalLoop=1;jettySize=auto;html=1;exitX=0.5;exitY=1;exitDx=0;exitDy=0;" parent="1" source="ET-E_L0radJHumGL9apl-10" target="ET-E_L0radJHumGL9apl-10" edge="1">
          <mxGeometry relative="1" as="geometry" />
        </mxCell>
        <mxCell id="ET-E_L0radJHumGL9apl-13" value="T01" style="text;html=1;strokeColor=#b85450;fillColor=#f8cecc;align=center;verticalAlign=middle;whiteSpace=wrap;overflow=hidden;" parent="1" vertex="1">
          <mxGeometry x="190" y="90" width="40" height="20" as="geometry" />
        </mxCell>
        <mxCell id="ET-E_L0radJHumGL9apl-34" value="" style="endArrow=oval;html=1;rounded=0;exitX=0.5;exitY=1;exitDx=0;exitDy=0;dashed=1;dashPattern=8 8;endFill=1;" parent="1" source="ET-E_L0radJHumGL9apl-13" edge="1">
          <mxGeometry width="50" height="50" relative="1" as="geometry">
            <mxPoint x="390" y="350" as="sourcePoint" />
            <mxPoint x="290" y="330" as="targetPoint" />
          </mxGeometry>
        </mxCell>
        <mxCell id="ET-E_L0radJHumGL9apl-36" value="T02" style="text;html=1;strokeColor=#b85450;fillColor=#f8cecc;align=center;verticalAlign=middle;whiteSpace=wrap;overflow=hidden;" parent="1" vertex="1">
          <mxGeometry x="250" y="60" width="40" height="20" as="geometry" />
        </mxCell>
        <mxCell id="ET-E_L0radJHumGL9apl-37" value="" style="endArrow=oval;html=1;rounded=0;dashed=1;dashPattern=8 8;entryX=0;entryY=0.5;entryDx=0;entryDy=0;endFill=1;" parent="1" source="ET-E_L0radJHumGL9apl-36" target="ET-E_L0radJHumGL9apl-4" edge="1">
          <mxGeometry width="50" height="50" relative="1" as="geometry">
            <mxPoint x="220" y="120" as="sourcePoint" />
            <mxPoint x="380" y="340" as="targetPoint" />
          </mxGeometry>
        </mxCell>
        <mxCell id="ET-E_L0radJHumGL9apl-38" value="Client" style="rounded=0;whiteSpace=wrap;html=1;" parent="1" vertex="1">
          <mxGeometry x="40" y="400" width="120" height="60" as="geometry" />
        </mxCell>
        <mxCell id="ET-E_L0radJHumGL9apl-39" value="C01" style="text;html=1;strokeColor=#82b366;fillColor=#d5e8d4;align=center;verticalAlign=middle;whiteSpace=wrap;overflow=hidden;" parent="1" vertex="1">
          <mxGeometry x="255" y="420" width="30" height="20" as="geometry" />
        </mxCell>
        <mxCell id="ET-E_L0radJHumGL9apl-43" value="" style="endArrow=oval;html=1;rounded=0;dashed=1;dashPattern=8 8;exitX=0.495;exitY=0.115;exitDx=0;exitDy=0;endFill=1;exitPerimeter=0;" parent="1" source="X64YKAAWX5VRGxH4L_mN-12" edge="1">
          <mxGeometry width="50" height="50" relative="1" as="geometry">
            <mxPoint x="265" y="585" as="sourcePoint" />
            <mxPoint x="220" y="430" as="targetPoint" />
          </mxGeometry>
        </mxCell>
        <mxCell id="X64YKAAWX5VRGxH4L_mN-3" value="" style="endArrow=classic;html=1;rounded=0;" edge="1" parent="1" source="ET-E_L0radJHumGL9apl-38" target="ET-E_L0radJHumGL9apl-39">
          <mxGeometry relative="1" as="geometry">
            <mxPoint x="90" y="510" as="sourcePoint" />
            <mxPoint x="190" y="510" as="targetPoint" />
          </mxGeometry>
        </mxCell>
        <mxCell id="X64YKAAWX5VRGxH4L_mN-4" value="HTTPS" style="edgeLabel;resizable=0;html=1;align=center;verticalAlign=middle;" connectable="0" vertex="1" parent="X64YKAAWX5VRGxH4L_mN-3">
          <mxGeometry relative="1" as="geometry" />
        </mxCell>
        <mxCell id="X64YKAAWX5VRGxH4L_mN-6" value="" style="endArrow=classic;html=1;rounded=0;" edge="1" parent="1" source="ET-E_L0radJHumGL9apl-6" target="ET-E_L0radJHumGL9apl-4">
          <mxGeometry relative="1" as="geometry">
            <mxPoint x="120" y="550" as="sourcePoint" />
            <mxPoint x="220" y="550" as="targetPoint" />
          </mxGeometry>
        </mxCell>
        <mxCell id="X64YKAAWX5VRGxH4L_mN-7" value="HTTPS" style="edgeLabel;resizable=0;html=1;align=center;verticalAlign=middle;" connectable="0" vertex="1" parent="X64YKAAWX5VRGxH4L_mN-6">
          <mxGeometry relative="1" as="geometry" />
        </mxCell>
        <mxCell id="X64YKAAWX5VRGxH4L_mN-9" value="" style="endArrow=classic;html=1;rounded=0;exitX=1;exitY=0.5;exitDx=0;exitDy=0;" edge="1" parent="1" source="ET-E_L0radJHumGL9apl-39" target="ET-E_L0radJHumGL9apl-4">
          <mxGeometry relative="1" as="geometry">
            <mxPoint x="270" y="430" as="sourcePoint" />
            <mxPoint x="210" y="510" as="targetPoint" />
          </mxGeometry>
        </mxCell>
        <mxCell id="X64YKAAWX5VRGxH4L_mN-10" value="HTTP" style="edgeLabel;resizable=0;html=1;align=center;verticalAlign=middle;" connectable="0" vertex="1" parent="X64YKAAWX5VRGxH4L_mN-9">
          <mxGeometry relative="1" as="geometry" />
        </mxCell>
        <mxCell id="X64YKAAWX5VRGxH4L_mN-12" value="T01" style="text;html=1;strokeColor=#b85450;fillColor=#f8cecc;align=center;verticalAlign=middle;whiteSpace=wrap;overflow=hidden;" vertex="1" parent="1">
          <mxGeometry x="245" y="585" width="40" height="20" as="geometry" />
        </mxCell>
        <mxCell id="X64YKAAWX5VRGxH4L_mN-26" value="Threat Actors" style="shape=table;startSize=30;container=1;collapsible=0;childLayout=tableLayout;fillColor=#F8CECC;strokeColor=#B85450;fontStyle=1;shadow=1;swimlaneFillColor=#FFFFFF;fontColor=#000000;whiteSpace=wrap;html=1;" vertex="1" parent="1">
          <mxGeometry x="70" y="610" width="450" height="160" as="geometry" />
        </mxCell>
        <mxCell id="X64YKAAWX5VRGxH4L_mN-27" value="" style="shape=tableRow;horizontal=0;startSize=0;swimlaneHead=0;swimlaneBody=0;strokeColor=inherit;top=0;left=0;bottom=0;right=0;collapsible=0;dropTarget=0;fillColor=inherit;points=[[0,0.5],[1,0.5]];portConstraint=eastwest;fontSize=16;fontColor=#000000;" vertex="1" parent="X64YKAAWX5VRGxH4L_mN-26">
          <mxGeometry y="30" width="450" height="30" as="geometry" />
        </mxCell>
        <mxCell id="X64YKAAWX5VRGxH4L_mN-28" value="ID" style="html=1;whiteSpace=wrap;connectable=0;strokeColor=inherit;overflow=hidden;fillColor=none;pointerEvents=1;fontColor=#000000;fontStyle=1" vertex="1" parent="X64YKAAWX5VRGxH4L_mN-27">
          <mxGeometry width="120" height="30" as="geometry">
            <mxRectangle width="120" height="30" as="alternateBounds" />
          </mxGeometry>
        </mxCell>
        <mxCell id="X64YKAAWX5VRGxH4L_mN-29" value="Description" style="html=1;whiteSpace=wrap;connectable=0;strokeColor=inherit;overflow=hidden;fillColor=none;pointerEvents=1;fontColor=#000000;fontStyle=1" vertex="1" parent="X64YKAAWX5VRGxH4L_mN-27">
          <mxGeometry x="120" width="330" height="30" as="geometry">
            <mxRectangle width="330" height="30" as="alternateBounds" />
          </mxGeometry>
        </mxCell>
        <mxCell id="X64YKAAWX5VRGxH4L_mN-30" value="" style="shape=tableRow;horizontal=0;startSize=0;swimlaneHead=0;swimlaneBody=0;strokeColor=inherit;top=0;left=0;bottom=0;right=0;collapsible=0;dropTarget=0;fillColor=none;points=[[0,0.5],[1,0.5]];portConstraint=eastwest;fontSize=16;fontColor=#000000;" vertex="1" parent="X64YKAAWX5VRGxH4L_mN-26">
          <mxGeometry y="60" width="450" height="50" as="geometry" />
        </mxCell>
        <mxCell id="X64YKAAWX5VRGxH4L_mN-31" value="T01" style="html=1;whiteSpace=wrap;connectable=0;strokeColor=inherit;overflow=hidden;fillColor=none;pointerEvents=1;fontColor=#000000;fontStyle=1" vertex="1" parent="X64YKAAWX5VRGxH4L_mN-30">
          <mxGeometry width="120" height="50" as="geometry">
            <mxRectangle width="120" height="50" as="alternateBounds" />
          </mxGeometry>
        </mxCell>
        <mxCell id="X64YKAAWX5VRGxH4L_mN-32" value="&lt;span style=&quot;font-weight: normal;&quot;&gt;&lt;font style=&quot;font-size: 12px;&quot;&gt;&lt;font style=&quot;font-size: 12px;&quot;&gt;CAPEC -217&amp;nbsp;&lt;/font&gt;&lt;span style=&quot;background-color: initial;&quot;&gt;Exploiting Incorrectly Configured SSL/TLS&lt;br&gt;&lt;/span&gt;&lt;/font&gt;MITRE ATT&amp;amp;CK T1464 Network Denial of Service&lt;font style=&quot;font-size: 12px;&quot;&gt;&lt;br&gt;&lt;/font&gt;&lt;/span&gt;" style="html=1;whiteSpace=wrap;connectable=0;strokeColor=inherit;overflow=hidden;fillColor=none;pointerEvents=1;fontColor=#000000;fontStyle=1;align=left;spacingLeft=4;" vertex="1" parent="X64YKAAWX5VRGxH4L_mN-30">
          <mxGeometry x="120" width="330" height="50" as="geometry">
            <mxRectangle width="330" height="50" as="alternateBounds" />
          </mxGeometry>
        </mxCell>
        <mxCell id="X64YKAAWX5VRGxH4L_mN-34" value="" style="shape=tableRow;horizontal=0;startSize=0;swimlaneHead=0;swimlaneBody=0;strokeColor=inherit;top=0;left=0;bottom=0;right=0;collapsible=0;dropTarget=0;fillColor=none;points=[[0,0.5],[1,0.5]];portConstraint=eastwest;fontSize=16;fontColor=#000000;" vertex="1" parent="X64YKAAWX5VRGxH4L_mN-26">
          <mxGeometry y="110" width="450" height="50" as="geometry" />
        </mxCell>
        <mxCell id="X64YKAAWX5VRGxH4L_mN-35" value="T02" style="html=1;whiteSpace=wrap;connectable=0;strokeColor=inherit;overflow=hidden;fillColor=none;pointerEvents=1;fontColor=#000000;fontStyle=1" vertex="1" parent="X64YKAAWX5VRGxH4L_mN-34">
          <mxGeometry width="120" height="50" as="geometry">
            <mxRectangle width="120" height="50" as="alternateBounds" />
          </mxGeometry>
        </mxCell>
        <mxCell id="X64YKAAWX5VRGxH4L_mN-36" value="&lt;font style=&quot;font-size: 12px; font-weight: normal;&quot;&gt;&lt;font style=&quot;font-size: 12px;&quot;&gt;CWE-352&amp;nbsp;&lt;/font&gt;&lt;span style=&quot;caret-color: rgb(108, 29, 31); font-family: Verdana, Arial, Helvetica, Geneva, sans-serif;&quot;&gt;Cross-Site Request Forgery (CSRF)&lt;/span&gt;&lt;font style=&quot;font-size: 12px;&quot;&gt;&lt;br&gt;CAPEC -217&amp;nbsp;&lt;/font&gt;&lt;span style=&quot;background-color: initial;&quot;&gt;Exploiting Incorrectly Configured SSL/TLS&lt;br&gt;&lt;/span&gt;&lt;/font&gt;&lt;span style=&quot;font-weight: normal;&quot;&gt;&lt;font style=&quot;font-size: 12px;&quot;&gt;MITRE ATT&amp;amp;CK T1464 Network Denial of Service&lt;br&gt;&lt;/font&gt;&lt;/span&gt;" style="html=1;whiteSpace=wrap;connectable=0;strokeColor=inherit;overflow=hidden;fillColor=none;pointerEvents=1;fontColor=#000000;fontStyle=1;align=left;spacingLeft=4;" vertex="1" parent="X64YKAAWX5VRGxH4L_mN-34">
          <mxGeometry x="120" width="330" height="50" as="geometry">
            <mxRectangle width="330" height="50" as="alternateBounds" />
          </mxGeometry>
        </mxCell>
      </root>
    </mxGraphModel>
  </diagram>
</mxfile>
